<svg width="18" height="13" viewBox="0 0 18 13" fill="none" xmlns="http://www.w3.org/2000/svg">
<path d="M11.7734 1.03125L10.9922 1.8125C10.8359 2.00781 10.8359 2.28125 11.0312 2.47656L14.1562 5.48438H0.71875C0.445312 5.48438 0.25 5.71875 0.25 5.95312V7.04688C0.25 7.32031 0.445312 7.51562 0.71875 7.51562H14.1562L11.0312 10.5625C10.8359 10.7578 10.8359 11.0312 10.9922 11.2266L11.7734 12.0078C11.9688 12.1641 12.2422 12.1641 12.4375 12.0078L17.5938 6.85156C17.75 6.65625 17.75 6.38281 17.5938 6.1875L12.4375 1.03125C12.2422 0.875 11.9688 0.875 11.7734 1.03125Z" fill="black"/>
</svg>
